<svg width="160" height="160" viewBox="0 0 160 160" fill="none" xmlns="http://www.w3.org/2000/svg">
<path fill-rule="evenodd" clip-rule="evenodd" d="M19.8028 128.937C-2.0295 113.77 24.1179 93.6735 17.7306 69.6426C11.3434 45.6117 -4.12865 9.78108 56.9101 22.5485C118.755 35.4845 157.979 52.1416 148.71 103.737C139.44 155.333 41.6351 144.103 19.8028 128.937Z" fill="#EF786F"/>
<path fill-rule="evenodd" clip-rule="evenodd" d="M110.053 133.825C108.906 132.681 108.362 131.082 107.855 129.543C106.527 131.467 103.561 131.529 101.525 130.381C99.4883 129.233 98.114 127.229 96.6517 125.405C94.0336 122.14 82.8189 114.076 82.6345 111.643C82.5368 110.352 86.2892 108.003 86.2892 108.003L79.5463 104.036C79.5463 104.036 76.0491 106.719 74.0384 107.038C68.4447 107.925 64.4883 107.397 64.4836 108.403C64.4664 112.046 86.505 130.526 79.4772 130.381C68.9299 130.164 49.6661 109.635 43.426 108.003C40.8127 107.32 22.8891 108.403 22.8891 104.065C22.8891 98.238 38.8985 94.2289 38.8985 94.2289C38.8985 94.2289 34.726 80.1587 39.7761 68.6527C40.9327 66.0175 42.3648 62.9558 42.5043 60.3668C42.5426 59.6565 62.7328 40.5321 65.3266 39.5767C71.3744 37.349 77.8075 36.1717 84.2522 36.1132C85.1113 36.1054 109.608 39.5767 120.623 57.759C122.614 61.0449 131.657 85.4475 122.475 100.755C121.027 103.17 121.205 106.167 122.206 108.826C123.207 111.485 124.439 114.442 123.304 117.047C122.684 112.874 121.596 108.771 120.066 104.839C117.932 106.39 119.012 109.728 120.284 112.039C121.887 114.951 123.49 117.863 125.093 120.776C125.76 121.987 126.449 123.321 126.209 124.683C125.935 126.24 124.548 127.317 123.263 128.238C120.329 130.34 117.395 132.443 114.461 134.545C113.145 135.489 111.2 134.969 110.053 133.825Z" fill="white"/>
<path fill-rule="evenodd" clip-rule="evenodd" d="M70.4216 69.3851C70.6463 68.7769 71.4552 68.5257 72.052 68.7792C72.6488 69.0327 73.0192 69.6665 73.1127 70.3081C73.2062 70.9497 73.0642 71.6018 72.8816 72.2239C72.7151 72.7913 72.5141 73.3485 72.2801 73.8914C72.2584 73.9419 72.2292 73.9984 72.1756 74.0104C72.1185 74.0233 72.0659 73.9788 72.0248 73.9372C71.0107 72.9098 70.3994 71.4949 70.3462 70.0523C70.3379 69.8272 70.3436 69.5965 70.4216 69.3851ZM72.1747 69.5336C72.0083 69.3909 71.7935 69.2975 71.5744 69.3042C71.063 69.3197 70.7062 69.8775 70.7176 70.389C70.729 70.9005 71.0014 71.3649 71.2659 71.8029C71.4553 72.1166 71.6447 72.4303 71.8341 72.7439C71.8986 72.8508 72.0256 72.9728 72.1262 72.8987C72.1667 72.8689 72.1824 72.8166 72.1956 72.768C72.2731 72.483 72.3506 72.1981 72.4282 71.9131C72.539 71.5057 72.6507 71.0916 72.6438 70.6695C72.6369 70.2473 72.4953 69.8084 72.1747 69.5336L72.1747 69.5336Z" fill="#FFAB01"/>
<path fill-rule="evenodd" clip-rule="evenodd" d="M71.8402 71.171C71.7156 71.2061 71.5796 71.1995 71.459 71.1524C71.225 71.0613 71.0634 70.8106 71.077 70.5598C71.0906 70.309 71.2782 70.0773 71.5207 70.0118C71.888 69.9127 72.3017 70.2512 72.2773 70.6309C72.2614 70.8773 72.0779 71.1041 71.8402 71.171Z" fill="#FFAB01"/>
<path fill-rule="evenodd" clip-rule="evenodd" d="M78.5355 130.791C78.9551 130.847 78.8002 131.498 78.528 131.822C75.9283 134.917 72.534 137.339 68.7618 138.79C67.9158 139.116 67.0407 139.395 66.1365 139.458C64.4595 139.573 62.789 138.918 61.4629 137.885C60.1368 136.852 59.1263 135.464 58.3029 133.999C56.0509 129.991 55.1068 125.262 55.6474 120.698C55.6983 120.268 55.9913 119.698 56.3871 119.873C56.2724 121.399 56.2546 122.932 56.3339 124.461C56.4117 125.962 56.585 127.467 57.0161 128.907C57.4153 130.241 58.0294 131.499 58.6696 132.734C59.3278 134.005 60.0251 135.271 60.9756 136.341C61.9261 137.41 63.1597 138.279 64.5632 138.556C66.3226 138.904 68.1285 138.297 69.7507 137.533C73.1149 135.947 76.1329 133.631 78.5355 130.791Z" fill="#2C2C2E"/>
<path fill-rule="evenodd" clip-rule="evenodd" d="M90.7072 113.397C93.7625 110.391 96.8178 107.385 99.8732 104.379C100.044 104.211 100.297 104.031 100.5 104.161C100.77 104.333 100.554 104.747 100.326 104.972C97.0378 108.224 93.7493 111.476 90.4609 114.729C90.2239 114.609 90.1549 114.284 90.2385 114.032C90.322 113.78 90.5178 113.584 90.7072 113.397H90.7072Z" fill="#2C2C2E"/>
<path fill-rule="evenodd" clip-rule="evenodd" d="M67.3173 96.1092C67.131 96.1414 66.9447 96.1736 66.7585 96.2058C66.3969 95.6632 66.027 95.1002 65.9135 94.4582C65.8 93.8162 66.0125 93.0689 66.5823 92.7522C67.2271 92.3938 67.4215 91.5124 67.2161 90.8039C67.0107 90.0953 66.5018 89.5212 66.0033 88.9773C65.497 88.425 64.6852 87.8386 64.0842 88.286C63.6924 88.5777 63.106 88.4128 62.7553 88.0728C62.4046 87.7328 62.2191 87.263 61.9923 86.8304C61.5633 86.012 60.9376 85.2736 60.1192 84.8445C59.3008 84.4155 58.2765 84.3304 57.4527 84.7492C56.6355 85.1646 56.1201 85.9912 55.4236 86.5871C54.727 87.1831 53.5767 87.4995 52.9491 86.8314C52.7895 86.6615 52.6824 86.4094 52.7731 86.1948C52.8638 85.9801 53.216 85.9063 53.3284 86.1104C53.6149 86.6308 54.4065 86.6233 54.9016 86.295C55.3966 85.9667 55.7064 85.43 56.1126 84.9965C56.907 84.1487 58.1144 83.7072 59.2684 83.8428C60.4223 83.9784 61.4945 84.6877 62.0708 85.6966C62.3485 86.1827 62.5196 86.7356 62.8821 87.1623C63.2446 87.5889 63.9035 87.8502 64.3685 87.5385C64.8938 87.1864 65.579 87.624 66.04 88.0569C66.6638 88.6427 67.2717 89.276 67.623 90.0563C67.9743 90.8366 68.03 91.7969 67.5709 92.5191C67.1887 93.1203 66.4573 93.6073 66.5207 94.3169C66.5798 94.9786 67.3413 95.4453 67.3173 96.1092Z" fill="#2C2C2E"/>
<path fill-rule="evenodd" clip-rule="evenodd" d="M75.3826 66.3145C76.5012 66.8382 77.4963 67.6758 78.0713 68.7689C78.6464 69.8619 78.7633 71.2194 78.2478 72.3417C77.1813 74.6635 73.7901 75.5673 73.4162 78.0948C73.3209 78.7386 73.4505 79.4078 73.2915 80.0388C73.1815 80.4749 72.9407 80.8642 72.748 81.2705C72.3348 82.1423 72.1396 83.1165 72.1851 84.0802C71.754 84.3135 71.2472 83.8167 71.1922 83.3297C71.1371 82.8426 71.3321 82.359 71.3217 81.869C71.3021 80.9479 70.5895 80.2147 69.9817 79.5223C69.07 78.4838 68.2778 77.261 68.1298 75.887C68.0821 75.4443 68.1022 74.9927 68.0026 74.5588C67.8956 74.092 67.6557 73.6688 67.4437 73.2394C66.872 72.0813 66.4851 70.7446 66.837 69.502C67.189 68.2593 68.501 67.2313 69.7465 67.5733C70.1003 67.6704 70.4464 67.8689 70.8093 67.8148C71.4466 67.7197 71.7037 66.9595 72.1479 66.4927C72.9442 65.6559 74.3365 65.8248 75.3826 66.3145M69.9663 78.3904C70.6726 79.3196 71.3788 80.2487 72.0851 81.1779C72.8951 80.3249 72.56 78.9452 72.8063 77.7949C73.1418 76.228 74.5433 75.1644 75.7577 74.1189C76.972 73.0734 78.1779 71.643 77.9051 70.064C77.6859 68.7952 76.5787 67.8935 75.5171 67.165C74.9186 66.7542 74.2277 66.3411 73.5139 66.4731C72.7921 66.6066 72.2977 67.2465 71.7776 67.7645C71.2576 68.2825 70.4735 68.7325 69.8227 68.3931C68.9068 67.9154 67.7408 68.7303 67.4823 69.7304C67.2239 70.7305 67.5955 71.7768 68.0034 72.7258C68.4113 73.6748 68.8716 74.6584 68.7941 75.6884C68.7187 76.6907 69.3582 77.5903 69.9663 78.3904Z" fill="#2C2C2E"/>
<path fill-rule="evenodd" clip-rule="evenodd" d="M13.6315 57.048C13.5856 56.9238 13.8034 56.8888 13.9202 56.9512C13.9152 57.0804 13.7166 57.1457 13.6358 57.0448L13.6315 57.048Z" fill="#2C2C2E"/>
<path fill-rule="evenodd" clip-rule="evenodd" d="M98.3397 107.934C98.5795 107.967 98.7069 108.262 98.6524 108.498C98.5979 108.734 98.4204 108.919 98.2501 109.091C96.8737 110.482 95.4972 111.873 94.1208 113.265C94.0191 113.367 93.8997 113.478 93.7553 113.473C93.5611 113.467 93.434 113.242 93.4577 113.049C93.4814 112.857 93.6082 112.694 93.7311 112.544C94.9968 110.995 96.3704 109.535 97.8385 108.177C97.9797 108.046 98.1493 107.907 98.3397 107.934V107.934Z" fill="#2C2C2E"/>
<path fill-rule="evenodd" clip-rule="evenodd" d="M57.8676 87.8133C58.6259 87.882 59.2091 88.5947 59.3393 89.3449C59.4695 90.0951 59.2356 90.8622 58.9183 91.5544C58.7435 91.9358 58.5426 92.3053 58.3175 92.6593C58.1555 92.9141 57.9493 93.1819 57.6515 93.2312C57.1543 93.3137 56.8051 92.7664 56.6133 92.3004C56.3433 91.6444 56.0955 90.9794 55.8706 90.3066C55.7601 89.9763 55.6539 89.6287 55.7104 89.2851C55.7967 88.7597 56.2431 88.3666 56.711 88.1124C57.066 87.9195 57.4651 87.7769 57.8676 87.8133M57.1552 91.6766C57.2134 91.7674 57.2753 91.8604 57.3665 91.9179C57.4412 91.9651 57.5329 91.9849 57.6205 91.9727C57.846 91.9414 57.991 91.7242 58.1062 91.5278C58.4076 91.0137 58.7171 90.4743 58.751 89.8794C58.7849 89.2844 58.4469 88.6225 57.8637 88.4998C57.1814 88.3563 56.5456 89.04 56.4878 89.7349C56.43 90.4297 56.7788 91.0897 57.1552 91.6766Z" fill="#FFAB01"/>
<path fill-rule="evenodd" clip-rule="evenodd" d="M57.8349 89.2233C58.0221 89.2838 58.1835 89.4205 58.274 89.5952C58.3546 89.7506 58.3788 89.9345 58.3413 90.1055C58.2546 90.5004 57.8082 90.7761 57.4163 90.6768C57.0244 90.5775 56.7632 90.1224 56.8751 89.7339C56.987 89.3454 57.4502 89.099 57.8349 89.2233ZM57.7482 90.0431C57.8909 89.968 57.7634 89.6944 57.6141 89.7554C57.4984 89.7708 57.4217 89.9163 57.4746 90.0204C57.5275 90.1245 57.6902 90.1484 57.7709 90.064L57.7482 90.0431Z" fill="#FFAB01"/>
<path fill-rule="evenodd" clip-rule="evenodd" d="M97.9716 96.6985C97.5488 96.2419 97.1688 95.7458 96.8381 95.2186C96.7324 95.0501 96.9515 94.8307 97.1486 94.857C97.3458 94.8832 97.4908 95.0486 97.6165 95.2028C98.0545 95.74 98.4926 96.2773 98.9307 96.8146C98.8804 97.0063 98.6383 97.093 98.4467 97.0422C98.2551 96.9913 98.1063 96.8439 97.9716 96.6985L97.9716 96.6985Z" fill="#2C2C2E"/>
<path fill-rule="evenodd" clip-rule="evenodd" d="M112.405 121.593C112.41 121.656 112.387 121.717 112.363 121.775C112.122 122.361 111.764 122.898 111.316 123.345C110.603 124.057 109.637 124.585 109.255 125.517C109.165 125.738 108.828 125.77 108.652 125.608C108.477 125.446 108.453 125.168 108.53 124.942C108.608 124.717 108.769 124.531 108.925 124.351C109.436 123.765 109.947 123.179 110.458 122.593C110.85 122.144 111.259 121.682 111.801 121.436C112.025 121.335 112.386 121.349 112.405 121.593V121.593Z" fill="#2C2C2E"/>
<path fill-rule="evenodd" clip-rule="evenodd" d="M98.4924 94.2586C98.9968 94.8513 99.5011 95.4439 100.005 96.0365C100.09 96.1361 100.18 96.2493 100.174 96.3799C100.165 96.5829 99.9158 96.7039 99.7182 96.6566C99.5206 96.6093 99.3712 96.4514 99.2385 96.2975C98.8112 95.8018 98.4284 95.2677 98.0963 94.7037C97.9669 94.4838 97.9165 94.0993 98.1696 94.0665C98.2994 94.0496 98.4075 94.159 98.4924 94.2586L98.4924 94.2586Z" fill="#2C2C2E"/>
<path fill-rule="evenodd" clip-rule="evenodd" d="M92.6833 97.562C92.6067 97.4543 92.5274 97.3139 92.5922 97.1986C92.6993 97.0084 92.9899 97.156 93.1347 97.3193C93.6472 97.8973 94.0834 98.5428 94.4284 99.2338C94.0998 99.4003 93.7503 99.0616 93.5367 98.7614C93.2523 98.3616 92.9678 97.9618 92.6833 97.562Z" fill="#2C2C2E"/>
<path fill-rule="evenodd" clip-rule="evenodd" d="M93.1379 99.2636C93.3431 99.4771 93.5507 99.828 93.3369 100.033C93.1195 100.241 92.7717 100.006 92.5796 99.7742C92.1148 99.2131 91.7107 98.6018 91.3763 97.9545C91.5909 97.7704 91.9086 97.9845 92.1045 98.1884C92.449 98.5468 92.7934 98.9052 93.1379 99.2636Z" fill="#2C2C2E"/>
<path fill-rule="evenodd" clip-rule="evenodd" d="M93.697 97.1626C93.6041 97.0261 93.5169 96.8385 93.6176 96.7076C93.7612 96.5207 94.0534 96.6924 94.2142 96.8647C94.6809 97.3649 95.1476 97.8651 95.6143 98.3654C95.5934 98.5461 95.3816 98.6542 95.2016 98.6276C95.0216 98.6009 94.8716 98.4795 94.7367 98.3574C94.3444 98.0022 93.9946 97.6002 93.697 97.1626L93.697 97.1626Z" fill="#2C2C2E"/>
<path fill-rule="evenodd" clip-rule="evenodd" d="M96.6389 96.0534C96.9296 96.4242 97.2202 96.795 97.5108 97.1657C97.626 97.3128 97.7476 97.5015 97.6725 97.6725C97.6001 97.8374 97.3712 97.8807 97.2056 97.8099C97.0401 97.7391 96.9241 97.5892 96.8162 97.4451C96.5128 97.0402 96.2123 96.6332 95.9147 96.2241C95.8489 96.1338 95.7801 96.0324 95.7901 95.9211C95.8067 95.7357 96.0439 95.6395 96.2213 95.6961C96.3986 95.7527 96.5241 95.9069 96.6389 96.0534H96.6389Z" fill="#2C2C2E"/>
<path fill-rule="evenodd" clip-rule="evenodd" d="M96.42 97.7633C96.4803 97.8289 96.5446 97.9055 96.5381 97.9944C96.5294 98.1128 96.3905 98.1862 96.273 98.1686C96.1556 98.1511 96.0584 98.0707 95.9701 97.9913C95.3901 97.4697 94.9013 96.8471 94.5322 96.1599C94.6048 95.9711 94.8904 96.0993 95.0273 96.2483C95.4915 96.7533 95.9557 97.2583 96.42 97.7633Z" fill="#2C2C2E"/>
<path fill-rule="evenodd" clip-rule="evenodd" d="M102.052 94.4197C102.098 94.4717 102.145 94.5312 102.143 94.6001C102.139 94.7042 102.015 94.7694 101.912 94.7518C101.81 94.7342 101.727 94.661 101.65 94.5903C101.104 94.0858 100.582 93.5555 100.086 93.0019C100.261 92.7661 100.632 92.9553 100.845 93.1577C101.267 93.5589 101.67 93.9802 102.052 94.4197V94.4197Z" fill="#2C2C2E"/>
<path fill-rule="evenodd" clip-rule="evenodd" d="M100.322 94.9238C100.017 94.5055 99.7117 94.0873 99.4063 93.6691C99.3503 93.5924 99.2914 93.4992 99.3214 93.4091C99.3806 93.2319 99.6496 93.3108 99.7944 93.4289C100.254 93.8036 100.643 94.2631 100.938 94.7773C100.995 94.8771 101.05 94.9952 101.01 95.1028C100.958 95.2398 100.771 95.2801 100.636 95.2227C100.501 95.1654 100.409 95.0419 100.322 94.9238L100.322 94.9238Z" fill="#2C2C2E"/>
<path fill-rule="evenodd" clip-rule="evenodd" d="M102.759 93.387C102.458 93.0626 102.156 92.7382 101.854 92.4138C101.747 92.2982 101.877 92.0931 102.034 92.0763C102.191 92.0594 102.334 92.1586 102.459 92.2558C102.687 92.4346 102.908 92.6238 103.12 92.8226C103.237 92.9325 103.356 93.0528 103.4 93.2072C103.444 93.3617 103.383 93.5578 103.232 93.6102C103.057 93.6705 102.885 93.5223 102.759 93.387L102.759 93.387Z" fill="#2C2C2E"/>
<path fill-rule="evenodd" clip-rule="evenodd" d="M102.174 94.0291C101.756 93.6009 101.356 93.1556 100.975 92.6946C100.909 92.6144 100.839 92.5154 100.867 92.4153C100.899 92.3021 101.047 92.2578 101.159 92.2957C101.27 92.3335 101.352 92.4272 101.427 92.517C101.776 92.93 102.125 93.3429 102.474 93.7558C102.569 93.8675 102.662 94.0432 102.554 94.1427C102.446 94.2431 102.277 94.1347 102.174 94.0291V94.0291Z" fill="#2C2C2E"/>
<path fill-rule="evenodd" clip-rule="evenodd" d="M122.035 120.497C122.506 120.352 123.699 120.028 124.171 119.883C124.382 119.818 124.696 119.809 124.735 120.027C124.768 120.206 124.562 120.327 124.39 120.385C123.914 120.545 122.7 120.835 122.201 120.895C122.024 120.916 121.766 120.85 121.802 120.675C121.823 120.574 121.937 120.528 122.035 120.497Z" fill="#2C2C2E"/>
<path fill-rule="evenodd" clip-rule="evenodd" d="M69.38 100.79C70.1261 100.8 71.0082 100.974 71.3058 101.658C71.5853 102.301 71.1458 103.074 70.5294 103.407C69.913 103.741 69.1788 103.749 68.4779 103.748C58.9158 103.736 49.354 103.505 39.8024 103.056C39.2072 103.028 39.1508 102.169 39.2868 101.589C39.368 101.243 39.4592 100.878 39.709 100.624C40.0683 100.26 40.6382 100.235 41.1499 100.234C48.0165 100.212 54.8955 100.19 61.733 100.822C62.816 100.922 63.9002 101.038 64.9878 101.028C66.4545 101.014 67.9134 100.768 69.38 100.79M70.4508 102.525C70.6111 102.213 70.3753 101.815 70.0546 101.671C69.7339 101.528 69.3653 101.565 69.0156 101.599C64.5332 102.04 60.0203 101.531 55.5239 101.269C52.2557 101.078 48.9815 101.017 45.7083 100.956C44.3439 100.931 42.9794 100.905 41.615 100.88C41.1796 100.872 40.7028 100.878 40.3684 101.156C40.0339 101.435 40.0227 102.092 40.4378 102.224C40.5128 102.247 40.5924 102.251 40.6711 102.255C50.2776 102.722 59.8967 102.932 69.5145 102.884C69.8671 102.882 70.2901 102.839 70.4508 102.525V102.525Z" fill="#2C2C2E"/>
<path fill-rule="evenodd" clip-rule="evenodd" d="M63.2755 108.519C64.1283 110.385 65.9652 111.767 67.995 112.069C68.9501 112.211 69.602 113.079 70.1459 113.877C70.7112 114.706 71.1258 116.111 70.1914 116.478C73.8179 120.477 77.4443 124.476 81.0708 128.475C81.4921 128.939 81.9014 129.715 81.4129 130.108C81.2315 130.254 80.9829 130.277 80.7502 130.285C77.7623 130.385 74.9431 128.987 72.3574 127.486C68.6339 125.326 65.0776 122.877 61.7308 120.169C59.2856 118.191 55.773 117.625 52.8303 118.735C51.3037 119.311 49.3899 118.137 49.2118 116.515C49.0336 114.893 50.6468 113.332 52.2621 113.562C49.8337 109.959 45.4905 107.732 41.1474 107.864C35.9053 108.022 30.6422 107.472 25.5461 106.233C25.0985 106.125 24.6179 105.989 24.3371 105.624C23.7774 104.895 24.3646 103.86 24.9799 103.178C29.5134 98.154 36.4891 95.4435 43.2255 96.0886C43.5126 96.1161 43.6687 95.7676 43.736 95.4872C45.4484 88.3506 47.1609 81.214 48.8733 74.0774C49.0798 73.2169 50.3896 73.0979 51.0386 73.6995C51.6876 74.3012 51.8302 75.2604 51.905 76.1422C52.4628 82.7157 51.4888 89.7926 54.7566 95.5236C54.9088 95.7905 55.0808 96.0639 55.3482 96.2154C55.6116 96.3647 55.9288 96.3739 56.2315 96.3792C62.2819 96.4864 68.3323 96.5936 74.3827 96.7008C75.1365 96.7142 76.0621 96.6245 76.3666 95.9348C77.147 94.1674 77.9275 92.4 78.7079 90.6327C78.9561 90.0704 79.2985 89.4325 79.9061 89.3398C80.7764 89.2071 81.327 90.3003 81.2989 91.1802C81.2708 92.0601 80.9747 92.9949 81.3623 93.7854C82.7838 92.2747 84.2294 90.7442 86.0068 89.6747C87.7842 88.6052 89.9674 88.037 91.9605 88.6117C90.1984 91.4133 88.4363 94.215 86.6742 97.0166C88.146 97.9905 88.262 100.453 86.8883 101.561C86.3018 102.034 86.7672 102.968 87.2531 103.544C88.7753 105.348 90.2975 107.152 91.8196 108.956C90.5204 109.559 89.0072 108.939 87.7296 108.292C85.4465 107.135 83.2178 105.871 81.0534 104.505C80.003 103.842 78.8454 105.084 77.8921 105.881C76.3787 107.145 74.2893 107.396 72.3278 107.596C69.3104 107.904 66.293 108.211 63.2755 108.519ZM68.5388 104.597C70.3926 104.698 72.2816 104.827 74.0803 104.367C75.9221 103.897 77.5983 102.801 78.7685 101.303C79.0527 100.939 79.5506 100.836 80.0055 100.758C81.576 100.488 83.2301 100.224 84.7304 100.761C85.4073 101.003 86.2332 100.726 86.6264 100.124C87.0196 99.5219 86.9418 98.6542 86.4478 98.1318C85.9132 98.1171 85.8157 98.8758 85.5321 99.3293C85.1596 99.925 84.347 100.022 83.6452 100.057C81.0706 100.187 78.496 100.316 75.9214 100.446C75.2963 100.477 74.4354 100.295 74.4541 99.6696C74.4623 99.3944 74.6633 99.167 74.8604 98.9747C75.5517 98.2999 76.3407 97.7254 77.1952 97.2747C66.7413 97.354 56.2859 97.2365 45.8364 96.9223C40.6981 96.7677 35.2187 96.6508 30.8403 99.3446C30.4316 99.596 30.1119 100.338 30.5862 100.411C31.9829 100.626 33.3796 100.842 34.7763 101.057C34.9426 101.083 35.1206 101.114 35.241 101.232C35.6019 101.584 35.0963 102.151 34.6313 102.347C32.7127 103.155 30.4265 103.031 28.6058 102.022C28.1932 101.793 27.7037 101.515 27.2833 101.729C26.7755 101.988 26.8453 102.805 27.2761 103.178C27.7068 103.551 28.3204 103.603 28.8892 103.639C33.9994 103.954 39.1096 104.269 44.2199 104.585C45.6563 104.673 47.0971 104.762 48.5335 104.672C55.1929 104.257 61.8765 104.232 68.5388 104.597ZM75.9984 124.407C74.2098 121.946 72.1725 119.666 69.9276 117.613C69.1926 116.941 68.5451 116.18 67.8998 115.422C65.0781 112.104 62.2564 108.787 59.4348 105.47C59.1531 105.139 58.6661 105.095 58.2316 105.082C54.5256 104.964 50.8072 105.239 47.159 105.902C46.8893 105.951 46.5982 106.014 46.4201 106.222C46.007 106.705 46.5232 107.412 47.0073 107.824C51.8513 111.948 56.8734 115.864 62.0549 119.556C63.0085 120.235 63.9764 120.912 65.0532 121.372C67.0848 122.239 69.1165 123.107 71.1481 123.975C72.7025 124.638 74.5555 125.287 75.9984 124.407ZM51.7373 87.7824C51.6627 86.8133 51.6623 85.8273 51.396 84.8926C50.9162 83.2087 49.6369 81.8865 48.3635 80.6848C48.2647 80.5916 48.1343 80.4913 48.0066 80.538C47.8906 80.5804 47.8486 80.7197 47.8221 80.8404C46.873 85.1624 45.9239 89.4844 44.9749 93.8063C44.7957 94.6221 44.6156 95.4492 44.6544 96.2835C47.9817 96.3254 51.309 96.3674 54.6363 96.4093C52.9786 93.8315 51.9727 90.8382 51.7373 87.7824ZM90.8322 89.2177C88.7655 89.041 86.6367 89.8007 85.1487 91.2459C82.4231 93.893 79.5126 96.3496 76.4453 98.5919C76.0254 98.8989 75.5755 99.2392 75.433 99.7394C78.0027 99.6235 80.5725 99.5076 83.1423 99.3917C83.82 99.3611 84.6178 99.2595 84.9418 98.6634C86.7151 95.4014 88.6833 92.2454 90.8322 89.2177ZM24.8726 104.52C24.8026 104.67 24.7405 104.836 24.7794 104.997C24.8482 105.281 25.18 105.399 25.4641 105.468C31.2098 106.862 37.1707 107.042 43.0805 107.215C43.6686 107.232 44.2787 107.245 44.8187 107.012C45.3587 106.778 45.8074 106.223 45.7196 105.641C41.8781 105.109 38.0006 104.836 34.1224 104.826C31.7991 104.819 29.4096 104.896 27.2315 104.087C26.7061 103.892 26.1115 103.501 26.1784 102.945C25.6188 103.348 25.1646 103.895 24.8726 104.52ZM79.6613 103.482C79.455 103.035 78.8743 102.87 78.3927 102.973C77.9112 103.076 77.5023 103.381 77.0984 103.663C76.1663 104.314 75.1583 104.888 74.0521 105.15C73.0877 105.379 72.0843 105.363 71.0933 105.345C67.4756 105.281 63.8579 105.217 60.2402 105.153C61.0458 106.355 62.15 107.705 63.5884 107.547C66.4024 107.238 69.253 107.312 72.0536 106.899C74.8542 106.486 77.6918 105.516 79.6613 103.482ZM88.0315 106.577C88.163 106.559 88.3166 106.515 88.358 106.389C88.3927 106.283 88.3292 106.172 88.2674 106.079C87.2254 104.512 85.942 103.121 84.6646 101.739C84.4698 101.528 84.2665 101.311 84.0018 101.199C83.7279 101.084 83.419 101.095 83.1226 101.117C81.9108 101.208 80.7108 101.455 79.5617 101.85C79.4679 101.883 79.3588 101.935 79.3482 102.033C79.3399 102.11 79.3974 102.177 79.4515 102.232C80.6588 103.459 82.1691 104.336 83.6595 105.198C85.0082 105.977 86.4875 106.785 88.0315 106.577ZM53.6765 114.461C53.5639 114.374 53.4441 114.284 53.3029 114.265C53.1883 114.25 53.0737 114.285 52.9634 114.319C52.708 114.399 52.4527 114.478 52.1974 114.557C51.9472 114.635 51.6346 114.865 51.779 115.084C52.2292 115.765 52.412 116.619 52.2804 117.425C52.2377 117.687 52.6141 117.78 52.8785 117.762C54.2454 117.665 55.6122 117.569 56.9791 117.472C57.1216 117.462 57.314 117.39 57.2807 117.251C56.0793 116.321 54.8779 115.391 53.6765 114.461ZM77.0973 95.9756C77.0012 96.2267 77.2572 96.4995 77.5247 96.5272C77.7922 96.5549 78.0466 96.4198 78.2815 96.2891C79.1285 95.8177 80.0419 95.2702 80.3618 94.3552C80.4661 94.0571 80.4983 93.7393 80.5297 93.425C80.5836 92.8858 80.6375 92.3465 80.6914 91.8072C80.7034 91.6875 80.7132 91.5578 80.6499 91.4555C80.5865 91.3532 80.4182 91.3118 80.3479 91.4094C80.0638 91.8041 79.6467 92.1012 79.1808 92.2407C78.9792 92.3011 78.7627 92.3358 78.5928 92.46C78.3906 92.6078 78.2913 92.8549 78.2018 93.0889C77.8336 94.0511 77.4655 95.0134 77.0973 95.9756ZM68.6752 113.257C68.3062 112.569 67.2895 112.338 66.6591 112.799C67.4718 113.434 67.9301 114.414 68.6199 115.181C68.8573 115.444 69.1659 115.7 69.5202 115.676C69.8744 115.653 70.1672 115.18 69.9162 114.929C69.4238 114.436 69.0042 113.871 68.6752 113.257ZM50.606 115.135C50.0574 115.67 50.2443 116.577 50.4707 117.31C50.547 117.557 50.7903 117.864 50.9923 117.703C51.0609 117.648 51.0854 117.556 51.1059 117.47C51.2071 117.05 51.309 116.619 51.2638 116.188C51.2185 115.758 50.9969 115.32 50.606 115.135Z" fill="#2C2C2E"/>
<path fill-rule="evenodd" clip-rule="evenodd" d="M111.276 134.844C110.129 133.7 109.585 132.101 109.078 130.563C107.75 132.486 106.027 133.852 103.99 132.704C101.954 131.556 99.337 128.248 97.8747 126.424C95.2566 123.159 92.1464 120.289 88.6817 117.94C90.5321 119.97 91.6387 122.664 91.7496 125.409C93.1532 125.394 94.5568 125.38 95.9604 125.365C91.2415 126.973 86.1859 127.586 81.2194 127.152C83.9181 124.882 86.0285 121.919 87.2907 118.627C87.0091 117.736 85.6705 117.942 84.8888 118.454C84.1072 118.966 83.0958 119.615 82.3428 119.062C81.4159 118.381 81.4797 116.248 80.379 116.582C77.5214 117.448 74.1337 115.728 73.1466 112.91C72.4725 113.331 71.7985 113.752 71.1244 114.174C70.7999 113.13 72.3027 112.323 73.3155 112.735C74.3283 113.146 74.9217 114.171 75.624 115.009C76.3263 115.847 77.4533 116.586 78.4556 116.15C80.3233 115.336 82.7801 116.806 82.9468 118.836C84.3952 117.674 86.3819 117.213 88.1941 117.619C87.038 115.944 85.7478 114.362 84.3401 112.893C85.4104 111.467 86.7338 110.231 88.23 109.261C87.4956 110.649 86.4777 111.887 85.2573 112.875C91.5169 119.012 97.7764 125.149 104.036 131.286C104.43 131.672 104.882 132.084 105.434 132.091C106.038 132.1 106.526 131.623 106.938 131.181C109.876 128.028 112.814 124.876 115.751 121.723C116.517 120.902 117.322 119.996 117.437 118.879C117.581 117.477 116.602 116.233 115.667 115.177C111.905 110.931 107.903 106.897 103.685 103.102C101.836 101.438 99.3969 99.7073 97.0698 100.589C94.2619 101.652 93.5937 105.878 90.7095 106.712C91.5718 105.527 92.4342 104.342 93.2966 103.157C91.5868 101.92 89.4481 99.1592 89.3369 97.0519C90.7095 95.8016 92.4016 94.8548 93.8051 94.1288C92.4016 90.8242 92.5683 90.1371 94.4452 89.6858C96.3222 89.2346 97.9483 88.7873 99.6733 88.2104C104.456 86.6109 106.738 79.0273 102.724 75.8773C100.516 74.1444 83.9644 57.1342 76.8578 50.8626C77.3961 53.263 74.2339 55.5263 72.1354 54.2425C72.538 55.6262 71.5701 57.3007 70.1407 57.4832C68.7112 57.6658 67.3168 56.0808 67.8171 54.7294C68.2478 53.5662 69.6257 53.085 70.4259 52.1372C71.2261 51.1894 70.5281 49.1064 69.4406 49.703C68.8663 52.0146 65.4858 52.9994 63.7599 51.3579C63.1523 50.7801 62.3564 50.638 61.5426 50.7746C60.5455 50.9419 58.8209 51.3289 58.0834 52.0438C56.9281 53.1637 56.6673 54.7998 55.2917 55.5601C55.0724 55.6812 54.8426 55.7852 54.5999 55.8679C52.834 56.4697 50.3615 54.7222 51.2783 53.0975C46.2538 57.7303 42.8045 64.0418 41.6188 70.7725C44.2413 71.5203 44.7392 74.9643 44.7318 77.6913C41.7733 78.4419 44.5564 84.0891 41.9977 85.7532C39.081 87.6502 39.8919 92.0615 41.0469 95.3436C38.0902 88.9804 37.7345 81.454 40.0778 74.8404C39.8462 79.0362 39.6146 83.2321 39.383 87.4279C41.367 87.1376 42.1683 84.7199 42.3324 82.7216C42.4964 80.7232 42.6212 78.372 44.3013 77.2776C43.6741 75.6788 43.4167 73.9363 43.555 72.2244C42.8249 71.9887 42.0947 71.753 41.3645 71.5173C40.9259 74.6066 37.4945 76.1262 34.665 77.4416C31.6104 78.8616 28.7365 80.6701 26.1347 82.8098C23.344 85.1048 20.6864 88.2599 20.9955 91.8598C21.2926 95.3212 24.2754 97.968 27.4068 99.4725C24.0535 99.4651 21.1754 96.482 20.6349 93.1726C20.0943 89.8631 21.5363 86.4587 23.7908 83.9763C26.0452 81.4939 29.0346 79.8064 32.0661 78.3729C36.0358 76.4956 40.851 74.0606 40.9991 69.6719C41.1226 66.0134 45.1352 62.4278 43.213 59.3125C40.5129 54.9367 39.0069 49.8321 38.8992 44.6915C38.846 42.1554 39.309 39.2846 41.3879 37.8311C42.4229 37.1075 43.7107 36.8548 44.9653 36.7107C49.6182 36.1764 54.4117 36.922 58.6825 38.8442C61.2032 39.9788 63.9558 41.5513 66.5496 40.5958C72.5974 38.3682 79.0304 37.1909 85.4751 37.1324C86.3343 37.1246 87.0473 36.4937 87.6455 35.877C89.9993 33.4503 91.9636 30.6422 94.5252 28.4358C97.0867 26.2295 100.494 24.6411 103.805 25.3239C107.272 26.0388 109.859 29.1256 110.992 32.4788C112.124 35.8321 112.06 39.4547 111.983 42.9931C111.847 49.33 119.795 52.781 121.846 58.7781C123.055 62.3141 127.046 63.9526 130.634 64.9958C134.223 66.039 138.242 67.1948 140.092 70.4421C141.815 73.4666 140.963 77.429 138.929 80.2538C136.895 83.0787 133.884 85.0143 130.947 86.8817C126.191 89.9051 127.526 97.638 123.698 101.774C121.769 103.859 122.428 107.187 123.429 109.845C124.43 112.504 125.662 115.461 124.527 118.066C123.907 113.893 122.819 109.79 121.289 105.858C119.155 107.409 120.235 110.747 121.507 113.058C123.11 115.97 124.713 118.883 126.316 121.795C126.983 123.006 127.672 124.341 127.432 125.702C127.158 127.259 125.771 128.336 124.486 129.257C121.552 131.359 118.618 133.462 115.684 135.564C114.368 136.508 112.423 135.988 111.276 134.844ZM117.537 108.003C117.28 107.713 116.809 107.854 116.457 108.017C116.105 108.179 115.752 108.342 115.4 108.505C115.323 108.541 115.237 108.577 115.155 108.555C115.001 108.513 114.975 108.284 115.072 108.156C115.169 108.029 115.334 107.978 115.486 107.928C115.811 107.823 116.128 107.693 116.433 107.541C116.608 107.454 116.796 107.339 116.843 107.15C116.891 106.961 116.673 106.731 116.513 106.841C116.04 107.167 115.507 107.407 114.95 107.546C114.783 107.587 114.522 107.535 114.561 107.367C114.576 107.303 114.636 107.261 114.692 107.226C115.19 106.913 115.732 106.673 116.298 106.515C116.502 106.458 116.451 106.115 116.257 106.031C116.063 105.946 115.841 106.032 115.647 106.116C115.178 106.321 114.709 106.525 114.24 106.73C114.139 106.774 114.026 106.831 113.999 106.938C113.975 107.033 114.031 107.129 114.084 107.212C114.425 107.746 114.766 108.279 115.106 108.813C115.158 108.895 115.217 108.982 115.309 109.011C115.409 109.044 115.516 108.999 115.61 108.955C116.26 108.652 116.902 108.334 117.537 108.003ZM85.4905 49.9365C84.3864 49.9553 83.5573 48.7001 83.7627 47.6152C83.9682 46.5303 84.9436 45.7184 85.9999 45.3968C87.4353 44.9597 89.1492 45.2155 90.2933 44.2447C90.8073 43.8086 91.121 43.1822 91.5891 42.6972C92.6093 41.6401 94.3841 41.4164 95.6347 42.1874C95.9155 41.4505 95.0847 40.7381 94.3071 40.6069C93.5296 40.4757 92.6911 40.6324 91.9749 40.3026C90.7166 39.7233 89.2349 40.4675 88.2279 41.4187C87.2208 42.3698 86.3951 43.568 85.154 44.183C83.9128 44.7981 82.0348 44.4551 81.6935 43.1126C81.5871 42.6942 81.574 42.1399 81.166 41.9989C80.5226 41.7764 80.1879 41.0252 80.226 40.3454C80.2642 39.6656 80.5901 39.0399 80.909 38.4383C79.648 38.3748 78.3818 38.4139 77.1271 38.5552C76.8262 38.5891 76.4435 38.7162 76.4442 39.0191C76.4455 39.645 75.8644 40.094 75.3422 40.4392C74.237 41.1697 73.1318 41.9002 72.0266 42.6308C72.0613 43.3604 73.1371 43.535 73.7672 43.1655C74.3974 42.7959 74.8413 42.1353 75.5206 41.8668C75.8834 41.7233 76.2819 41.7057 76.6717 41.6898C77.3376 41.6628 78.0034 41.6357 78.6693 41.6086C79.5225 41.5739 80.6736 41.7905 80.7187 42.6432C80.7557 43.3426 79.9792 43.7512 79.4821 44.2445C78.3505 45.3674 78.3547 47.5408 76.8696 48.1204C76.3419 48.3263 76.2 49.0573 76.4315 49.5743C76.663 50.0913 77.1457 50.4427 77.6025 50.7779C85.5742 56.6272 99.4615 71.707 99.7653 71.7474C100.069 71.7877 100.426 71.5696 100.409 71.2636C100.365 70.4723 100.322 69.6666 100.516 68.8981C100.709 68.1295 101.179 67.3898 101.903 67.0684C102.571 66.7723 103.543 66.7053 103.687 65.9893C104.011 64.3876 105.614 63.1491 107.245 63.2407C108.047 63.2857 108.931 63.5916 109.599 63.1449C109.061 62.6346 108.266 62.5293 107.599 62.2054C106.932 61.8815 106.345 61.0613 106.743 60.436C107.332 59.5125 106.475 58.305 106.651 57.2242C106.726 56.7655 106.985 56.3595 107.259 55.984C108.187 54.7113 109.36 53.6175 110.694 52.78C111.005 52.5852 111.082 52.1752 111.131 51.8123C111.249 50.9358 111.367 50.0593 111.485 49.1829C111.567 48.5714 111.623 47.8697 111.204 47.4174C109.838 45.9454 107.565 45.8972 105.558 45.9627C103.551 46.0282 101.284 46.0023 99.8934 44.5536C99.4619 44.104 98.6739 44.2569 98.2059 44.6684C97.7379 45.0799 97.4793 45.6724 97.1309 46.1892C96.0427 47.8035 93.9357 48.6591 92.0301 48.2605C91.0095 48.047 89.9805 47.5091 88.9783 47.7972C87.6424 48.1811 86.8802 49.9128 85.4905 49.9365ZM123.843 89.6679C123.904 89.8906 123.994 90.145 124.212 90.22C124.387 90.2801 124.577 90.198 124.743 90.1176C125.298 89.8506 125.852 89.5836 126.407 89.3166C126.691 89.1796 127.011 88.9977 127.061 88.6859C128.088 82.3639 127.791 75.8301 126.194 69.6275C125.817 68.1606 125.366 66.7093 124.766 65.3186C124 63.5421 122.996 61.8792 121.965 60.242C120.481 57.8853 118.934 55.568 117.328 53.2931C117.03 53.758 116.941 54.3211 116.789 54.852C116.638 55.383 116.384 55.9334 115.896 56.1923C115.408 56.4512 114.659 56.2315 114.572 55.6861C114.385 54.5071 113.12 53.6156 111.947 53.8363C111.695 53.8837 111.611 54.1974 111.58 54.4523C111.294 56.7682 111.009 59.0841 110.723 61.4C110.703 61.5684 110.694 61.7688 110.826 61.8748C110.937 61.9631 111.094 61.9434 111.235 61.9413C112.033 61.9293 112.73 62.7633 112.576 63.5468C112.421 64.3303 111.461 64.8381 110.726 64.5243C110.41 64.3889 110.161 64.8186 110.082 65.154C109.602 67.1785 109.123 69.203 108.643 71.2276C108.502 71.8247 109.017 72.3883 109.572 72.6507C110.127 72.9131 110.76 73.0081 111.269 73.3508C112.544 74.2094 112.489 76.1622 113.52 77.3022C114.36 78.231 115.914 78.3999 116.934 77.6733C117.846 77.0232 118.243 75.836 118.243 74.7156C118.244 73.9517 118.718 73.2079 119.411 72.8855C120.103 72.5632 120.978 72.6792 121.563 73.1709C122.132 73.6498 122.39 74.3941 122.624 75.1007C122.726 75.4123 122.829 75.7523 122.719 76.0613C122.538 76.5667 121.917 76.7163 121.41 76.8898C120.477 77.2085 119.659 77.8538 119.133 78.6871C118.876 79.0938 118.702 79.664 119.02 80.0249C119.797 80.9067 120.574 81.7885 121.351 82.6702C121.758 83.1314 122.177 83.6145 122.34 84.2072C122.841 86.0274 123.342 87.8476 123.843 89.6679ZM44.6767 60.6801C45.8946 58.407 47.1244 56.116 48.7789 54.138C50.2279 52.4057 51.973 50.9491 53.7157 49.5127C56.0117 47.6202 58.3216 45.7446 60.6453 43.8863C61.6125 43.1127 62.5948 42.3343 63.7224 41.822C60.3417 40.3323 56.9395 38.8352 53.3504 37.9601C49.7612 37.0851 45.9382 36.8569 42.3967 37.9084C42.0555 38.0097 41.7128 38.125 41.4183 38.3248C40.9209 38.6622 40.6068 39.2088 40.3711 39.7618C39.4449 41.9348 39.4969 44.3969 39.7982 46.7398C40.4307 51.6583 42.1042 56.4405 44.6767 60.6801ZM121.007 128.138C120.975 128.468 120.619 128.778 120.32 128.635C120.179 128.567 120.093 128.424 120.015 128.288C118.823 126.206 117.63 124.124 116.438 122.042C115.668 122.332 115.299 123.259 115.385 124.077C115.471 124.894 115.907 125.628 116.333 126.331C116.984 127.407 117.635 128.483 118.285 129.559C117.943 129.911 117.392 129.442 117.139 129.022C116.236 127.522 115.332 126.023 114.429 124.524C112.704 126.298 110.979 128.072 109.254 129.846C110.378 131.602 111.501 133.358 112.624 135.114C112.889 135.528 113.456 135.66 113.936 135.556C114.416 135.452 114.831 135.161 115.232 134.876C118.242 132.735 121.253 130.594 124.263 128.453C124.492 128.29 124.737 128.104 124.805 127.831C124.875 127.546 124.729 127.257 124.587 126.999C117.777 114.61 110.509 102.473 102.802 90.6211C102.575 90.2722 102.288 89.8868 101.873 89.8593C101.596 89.8409 101.34 89.9917 101.103 90.1371C98.0469 92.018 94.9903 93.8989 91.9338 95.7798C91.3679 96.1281 90.8019 96.4763 90.236 96.8246C90.0887 96.9152 89.9301 97.0201 89.8808 97.1859C89.8224 97.3818 89.9382 97.5831 90.0497 97.7544C91.163 99.4649 92.3384 101.135 93.5727 102.76C95.0313 101.191 96.7667 99.4997 98.909 99.5528C100.758 99.5988 102.284 100.944 103.632 102.212C104.42 102.954 105.208 103.696 105.996 104.437C104.75 102.104 103.278 99.8922 101.606 97.843C101.533 97.498 102.141 97.5923 102.375 97.8558C104.709 100.48 105.993 103.93 108.45 106.439C110.961 109.003 113.472 111.567 115.983 114.132C117.05 115.221 118.181 116.451 118.266 117.973C118.342 119.363 117.518 120.628 116.69 121.746C118.15 123.471 119.486 125.3 120.684 127.217C120.859 127.498 121.039 127.808 121.007 128.138ZM94.4144 38.7244C95.4718 38.934 96.5305 39.1438 97.5678 39.4367C100.24 40.1912 102.724 41.4822 105.187 42.7646C107.336 43.8837 109.497 45.0103 111.426 46.4767C111.635 41.2344 111.428 36.0293 109.683 31.0813C109.18 29.6545 107.966 28.1158 106.784 27.1713C105.396 26.0622 103.47 25.867 101.711 26.1186C98.6396 26.558 95.8417 28.2032 93.5374 30.2814C91.2331 32.3596 89.3645 34.867 87.5121 37.3565C89.8129 37.8125 92.1137 38.2684 94.4144 38.7244ZM125.273 64.1694C128.241 71.7416 129.21 80.0871 128.057 88.138C131.823 85.9795 135.19 83.1254 137.935 79.7628C139.304 78.0872 140.572 76.115 140.483 73.9535C140.409 72.1772 139.399 70.5374 138.065 69.3626C136.73 68.1877 135.092 67.4195 133.445 66.7499C130.796 65.6727 128.06 64.8089 125.273 64.1694ZM119.452 77.1164C120.15 76.6046 120.896 76.1596 121.678 75.7892C121.676 75.2904 121.67 74.7753 121.47 74.3184C121.27 73.8615 120.821 73.4749 120.323 73.5091C119.8 73.5452 119.405 74.0229 119.239 74.5202C119.073 75.0176 119.071 75.5539 118.956 76.0655C118.638 77.4803 117.384 78.6352 115.948 78.8358C114.512 79.0364 112.99 78.2693 112.296 76.9956C111.738 75.9692 111.654 74.641 110.764 73.8838C110.271 73.4643 109.615 73.3033 108.984 73.1551C108.838 73.1207 108.682 73.0866 108.54 73.1353C108.312 73.2135 108.204 73.4689 108.124 73.6967C107.584 75.2223 107.044 76.7479 106.505 78.2736C106.305 78.8379 106.141 79.5593 106.587 79.9585C110.706 83.6447 112.383 89.5078 116.572 93.1143C116.696 93.2211 116.849 93.3327 117.008 93.2949C119.006 92.8206 120.944 92.0899 122.757 91.1265C122.902 91.0499 123.052 90.9652 123.135 90.8243C123.219 90.6813 123.219 90.5055 123.21 90.3399C123.15 89.2 122.812 88.0756 122.231 87.0926C121.957 86.6277 121.62 86.1686 121.568 85.6313C121.523 85.1725 121.694 84.702 121.585 84.2541C121.496 83.8883 121.234 83.5933 120.981 83.3147C120.265 82.5274 119.55 81.7402 118.835 80.9529C118.481 80.5635 118.113 80.1481 118.005 79.6333C117.794 78.6302 118.626 77.7228 119.452 77.1164ZM74.621 53.9379C75.4648 53.4303 75.9762 52.4177 75.8839 51.4373C75.7492 50.0067 74.5171 48.9641 73.3798 48.0859C71.5163 46.6469 67.2549 43.1505 65.3813 42.399C63.5077 41.6475 55.2183 49.0417 52.3378 51.8768C52.1923 52.02 52.0406 52.1761 52 52.3762C51.9595 52.5762 51.0792 54.729 52.8515 55.2523C54.6239 55.7755 54.8139 55.3723 55.5379 54.729C56.2619 54.0857 56.6834 53.1731 57.0236 52.2662C57.3141 51.4917 58.1927 51.1211 59.0032 50.956C59.8138 50.7909 60.6872 50.7294 61.3577 50.2449C62.0559 49.7403 63.031 49.7696 63.8268 50.0995C64.6227 50.4294 65.2799 51.0163 65.9204 51.5924C66.4555 52.0737 67.3206 51.5355 67.6504 50.8958C67.9803 50.2561 68.1188 49.4668 68.6958 49.0364C69.5207 48.4212 70.7866 48.9719 71.2945 49.8669C72.0168 51.1397 71.5061 52.9572 70.2265 53.6675C69.485 54.0792 68.3999 54.355 68.3703 55.2026C68.3556 55.624 68.6498 55.9947 68.9776 56.2599C69.5657 56.7356 70.5234 56.9614 71.0244 56.3947C71.7383 55.5871 70.941 53.8805 71.9299 53.4515C72.8033 53.0727 73.8053 54.4287 74.621 53.9379ZM97.1703 44.9035C97.4661 44.4446 97.7627 43.9419 98.2561 43.708C98.8867 43.4091 99.644 43.6465 100.242 44.0059C100.84 44.3654 101.375 44.8464 102.031 45.0841C102.699 45.3261 103.43 45.2934 104.14 45.2576C105.32 45.198 106.5 45.1385 107.679 45.0789C100.547 40.9466 92.525 38.0485 84.2827 37.967C83.5879 37.9602 82.8772 37.976 82.2252 38.2164C81.5733 38.4567 80.9812 38.9626 80.8141 39.6371C80.5596 40.6641 81.4939 41.7619 82.5515 41.7947C81.9991 42.1991 82.0842 43.1384 82.6105 43.5764C83.1368 44.0143 83.9244 44.0109 84.5562 43.7472C85.188 43.4835 85.7 43.0026 86.197 42.5317C87.1219 41.6552 88.0468 40.7788 88.9717 39.9023C89.553 39.3514 90.4582 39.3281 91.2438 39.4835C92.0295 39.639 92.7985 39.9399 93.5992 39.9204C95.2803 39.8796 96.7693 41.6056 96.4826 43.2625C95.7281 42.551 94.6305 42.2212 93.6087 42.399C92.587 42.5769 91.6653 43.2581 91.1956 44.1828C90.8148 44.9324 89.9648 45.3286 89.1382 45.4829C88.3117 45.6371 87.4577 45.6048 86.6343 45.775C85.8108 45.9451 84.9713 46.3786 84.6345 47.149C84.2977 47.9194 84.7378 49.0182 85.575 49.0959C86.5502 49.1863 87.1195 48.0412 87.9398 47.5061C88.7205 46.9969 89.7395 47.0636 90.6504 47.2615C91.5612 47.4595 92.4718 47.7716 93.4004 47.6913C95.0142 47.5517 96.2928 46.265 97.1703 44.9035ZM123.289 91.8632C121.42 92.5837 119.551 93.3043 117.682 94.0249C117.422 94.1251 117.106 94.3812 117.262 94.6119C119.045 97.2427 120.417 100.151 121.314 103.2C121.401 103.496 121.851 103.274 122.027 103.02C123.662 100.657 124.965 98.0651 125.887 95.3438C126.054 94.8512 126.209 94.3192 126.066 93.8192C125.841 93.0336 124.997 92.6375 124.374 92.1078C124.203 91.9615 124.029 91.7922 123.805 91.7597C123.629 91.7341 123.454 91.7992 123.289 91.8632ZM101.73 68.4955C100.872 69.4071 101.593 70.9512 101.152 72.1231C101.054 72.3829 100.896 72.6569 100.986 72.9195C101.031 73.0502 101.132 73.1528 101.229 73.2507C101.535 73.5566 101.84 73.8624 102.145 74.1683C102.385 74.4084 102.773 74.6571 103.023 74.4276C104.05 73.4833 105.293 72.7765 106.63 72.3777C107.015 72.2629 107.431 72.159 107.7 71.8605C107.937 71.5971 108.013 71.2308 108.081 70.883C108.458 68.936 108.833 66.9885 109.205 65.0405C109.234 64.8885 109.262 64.7255 109.2 64.5837C109.135 64.4333 108.983 64.3411 108.835 64.2706C107.331 63.5544 105.309 64.2883 104.615 65.802C104.379 66.3158 104.271 66.9107 103.875 67.3144C103.298 67.9027 102.295 67.8958 101.73 68.4955ZM71.7522 43.5903C71.4616 43.3265 71.1609 42.9954 71.1896 42.6039C71.2201 42.1867 71.6066 41.8989 71.9567 41.6699C73.1973 40.8585 74.438 40.047 75.6786 39.2356C75.6484 38.9946 75.3106 38.9692 75.0717 39.0126C71.8593 39.5968 68.7119 40.5384 65.7065 41.8146C69.0582 43.8807 72.2736 46.1678 75.325 48.6561C75.6953 47.8155 76.6484 47.4017 77.2127 46.6769C77.9254 45.7612 77.9788 44.4013 78.8554 43.641C79.2856 43.2679 79.9245 43.0092 80.0106 42.4463C79.2581 42.4516 78.5055 42.4568 77.753 42.4621C76.8375 42.4685 75.8629 42.4922 75.1022 43.0016C74.4384 43.4462 73.9282 44.2548 73.1295 44.2776C72.6033 44.2926 72.142 43.9442 71.7522 43.5903ZM109.271 93.6556C109.855 94.7028 110.439 95.7501 111.023 96.7974C109.953 93.3928 108.677 90.053 107.205 86.8023C107.152 86.6868 107.092 86.5634 106.98 86.5041C106.842 86.431 106.674 86.4793 106.525 86.5288C102.376 87.916 98.2274 89.3032 94.0784 90.6905C93.9523 90.7326 93.8157 90.783 93.748 90.8974C93.6667 91.0348 93.7154 91.2094 93.7698 91.3595C94.0129 92.0304 94.3311 92.6741 94.7166 93.2747C97.3187 91.7606 99.9208 90.2466 102.523 88.7325C102.923 88.4995 103.345 88.26 103.808 88.2425C104.191 88.228 104.564 88.3686 104.906 88.5412C106.939 89.5665 108.162 91.6671 109.271 93.6556ZM90.4331 121.988C89.9101 120.871 89.0127 119.956 87.9824 119.278C86.7171 121.629 85.2652 123.879 83.6447 126C83.5208 126.162 83.4751 126.494 83.6788 126.48C85.6547 126.341 87.6305 126.202 89.6063 126.063C90.0029 126.035 90.4796 125.952 90.6253 125.582C91.0774 124.434 90.9561 123.105 90.4331 121.988ZM120.264 105.508C120.424 105.263 120.587 105.011 120.652 104.726C120.738 104.348 120.643 103.956 120.541 103.582C119.758 100.71 118.525 97.9693 116.986 95.4211C116.807 95.1245 116.614 94.8204 116.322 94.6334C116.031 94.4464 115.611 94.412 115.357 94.6472C115.017 94.9613 115.146 95.5163 115.301 95.9525C116.527 99.4086 117.754 102.865 118.981 106.321C119.054 106.527 119.221 106.78 119.424 106.701C119.504 106.67 119.555 106.595 119.602 106.524C119.823 106.185 120.044 105.847 120.264 105.508ZM107.952 61.5503C108.307 61.8497 108.779 61.9631 109.231 62.0675C109.594 62.1512 109.809 61.6777 109.872 61.3105C110.292 58.8583 110.561 56.3832 110.831 53.9099C110.625 53.8224 110.406 53.9907 110.246 54.1464C109.668 54.7064 109.091 55.2663 108.514 55.8262C108.112 56.216 107.692 56.637 107.565 57.1821C107.322 58.2196 108.207 59.4018 107.648 60.3089C107.404 60.7043 107.597 61.2508 107.952 61.5503ZM106.695 81.1672C106.557 81.0114 106.407 80.8508 106.209 80.7866C106.011 80.7223 105.752 80.795 105.683 80.9918C105.069 82.7495 104.454 84.5072 103.84 86.2648C103.781 86.4319 103.821 86.7132 103.99 86.6631C105.027 86.3572 105.983 85.816 107.023 85.5254C108.064 85.2349 109.281 85.2385 110.112 85.9284C109.143 84.2285 107.996 82.6299 106.695 81.1672ZM115.572 55.4649C115.883 54.6194 116.195 53.7739 116.507 52.9284C116.567 52.7645 116.448 52.5939 116.335 52.4601C115.222 51.1346 114.1 49.7999 112.753 48.7135C112.696 48.6672 112.631 48.6189 112.557 48.6229C112.417 48.6303 112.361 48.8045 112.341 48.9433C112.174 50.1222 112.006 51.3012 111.838 52.4802C111.789 52.8237 112.106 53.1223 112.438 53.2239C112.769 53.3255 113.127 53.2972 113.468 53.3607C114.097 53.4778 114.654 53.9281 114.9 54.5187C115.057 54.8935 115.172 55.3918 115.572 55.4649ZM105.623 78.2384C106.212 76.7316 106.753 75.2057 107.243 73.6638C107.276 73.56 107.309 73.4473 107.274 73.3441C107.18 73.0688 106.773 73.1401 106.513 73.2703C105.491 73.7821 104.509 74.3721 103.577 75.0335C103.461 75.1156 103.335 75.2192 103.33 75.361C103.327 75.4683 103.396 75.5628 103.462 75.6474C104.154 76.534 104.875 77.3983 105.623 78.2384ZM114.266 103.075C114.156 102.955 113.974 102.936 113.811 102.939C113.442 102.945 113.074 103.02 112.731 103.16C112.563 103.228 112.396 103.314 112.214 103.323C112.033 103.332 111.829 103.238 111.784 103.061C112.264 102.718 112.846 102.52 113.436 102.498C113.698 102.489 113.705 102.044 113.475 101.918C113.245 101.792 112.961 101.884 112.716 101.978C112.312 102.133 111.907 102.289 111.502 102.445C111.384 102.49 111.263 102.347 111.28 102.222C111.297 102.097 111.399 102.002 111.499 101.926C111.863 101.647 112.298 101.462 112.75 101.392C112.966 101.359 113.001 101.024 112.843 100.873C112.686 100.722 112.443 100.712 112.225 100.724C111.591 100.757 110.962 100.894 110.372 101.129C110.875 102.032 111.389 102.929 111.913 103.82C112.049 104.05 112.196 104.291 112.432 104.419C112.854 103.886 113.496 103.532 114.173 103.46C114.335 103.443 114.377 103.196 114.266 103.075ZM122.934 119.366C122.546 119.465 122.162 119.578 121.782 119.705C121.678 119.739 121.558 119.793 121.54 119.902C121.53 119.966 121.561 120.029 121.591 120.087C121.814 120.515 122.037 120.944 122.26 121.373C122.351 121.547 122.533 121.751 122.702 121.651C123.258 121.324 123.879 121.108 124.519 121.02C124.695 120.996 124.81 120.807 124.814 120.63C124.818 120.452 124.739 120.284 124.662 120.124C124.531 119.85 124.386 119.561 124.127 119.401C123.779 119.185 123.331 119.265 122.934 119.366ZM124.431 124.077C124.279 124.105 124.104 124.151 124.044 124.293C123.996 124.409 124.047 124.54 124.098 124.655C124.291 125.094 124.485 125.533 124.678 125.972C124.739 126.109 124.818 126.263 124.965 126.296C125.069 126.319 125.174 126.272 125.27 126.226C125.569 126.083 125.867 125.94 126.165 125.797C126.333 125.717 126.511 125.627 126.603 125.465C126.695 125.304 126.646 125.051 126.467 125.001C126.371 124.975 126.27 125.012 126.18 125.056C125.913 125.186 125.673 125.374 125.388 125.457C125.103 125.54 124.74 125.476 124.604 125.212C125.307 124.963 125.978 124.626 126.599 124.213C126.543 123.825 125.999 123.791 125.614 123.861C125.22 123.933 124.825 124.005 124.431 124.077ZM118.692 113.997C118.806 113.873 118.971 113.812 119.13 113.756C119.568 113.6 120.006 113.445 120.443 113.289C120.671 113.208 120.615 112.83 120.4 112.72C120.186 112.609 119.926 112.678 119.696 112.749C119.195 112.903 118.695 113.058 118.194 113.212C118.129 113.232 118.061 113.254 118.015 113.305C117.91 113.421 117.98 113.603 118.055 113.741C118.253 114.107 118.451 114.473 118.65 114.84C118.673 114.882 118.699 114.928 118.743 114.949C118.796 114.973 118.858 114.954 118.914 114.935C119.523 114.725 120.132 114.514 120.741 114.304C120.886 114.254 121.061 114.162 121.048 114.008C121.032 113.799 120.725 113.798 120.525 113.861C119.899 114.06 119.273 114.259 118.646 114.458C118.536 114.33 118.577 114.122 118.692 113.997ZM126.477 90.1006C125.938 90.4053 125.398 90.71 124.859 91.0147C124.794 91.0514 124.726 91.0912 124.691 91.1566C124.596 91.3298 124.782 91.5178 124.946 91.6275C125.282 91.8522 125.617 92.0769 125.952 92.3017C126.018 92.3459 126.089 92.3918 126.169 92.3925C126.35 92.3942 126.443 92.1816 126.489 92.0071C126.638 91.4466 126.786 90.8862 126.935 90.3257C126.954 90.2553 126.972 90.1782 126.942 90.1119C126.869 89.9521 126.63 90.0142 126.477 90.1006ZM119.377 115.253C119.247 115.286 119.099 115.335 119.05 115.46C119.014 115.554 119.047 115.659 119.089 115.749C119.198 115.983 119.371 116.186 119.584 116.331C120.15 116.115 120.715 115.899 121.281 115.683C121.524 115.59 121.812 115.434 121.802 115.174C121.794 114.988 121.619 114.844 121.436 114.808C121.253 114.772 121.065 114.818 120.885 114.865C120.383 114.994 119.88 115.123 119.377 115.253ZM111.181 94.9016C111.378 95.288 111.868 95.3999 112.297 95.4693C112.98 95.5801 113.663 95.6908 114.347 95.8016C114.359 95.4137 113.958 95.1559 113.603 95.0001C112.952 94.7147 112.272 94.4943 111.577 94.3433C111.502 94.327 111.423 94.3115 111.349 94.3295C111.126 94.3831 111.076 94.6977 111.181 94.9016ZM108.647 94.6091C108.701 94.5889 108.755 94.5682 108.801 94.5343C109.005 94.3845 108.943 94.0324 108.735 93.8883C108.527 93.7443 108.245 93.7636 108.004 93.8395C107.762 93.9154 107.537 94.041 107.29 94.0968C106.957 94.1721 106.52 94.1686 106.393 94.4857C106.284 94.7565 106.534 95.0632 106.819 95.126C107.104 95.1887 107.396 95.0835 107.669 94.98C107.995 94.8564 108.321 94.7328 108.647 94.6091ZM109.959 97.0519C110.235 96.8723 110.107 96.3991 109.814 96.2495C109.521 96.0999 109.17 96.1699 108.849 96.2432C108.511 96.3206 108.15 96.411 107.92 96.6704C107.689 96.9298 107.69 97.4157 108.004 97.5625C108.431 97.762 108.831 97.1986 109.297 97.1289C109.52 97.0955 109.771 97.1749 109.959 97.0519ZM119.626 112.211C119.719 112.18 119.817 112.145 119.876 112.068C119.942 111.982 119.945 111.86 119.907 111.758C119.819 111.52 119.545 111.393 119.291 111.398C119.037 111.403 118.798 111.51 118.568 111.616C118.274 111.751 117.98 111.886 117.687 112.021C117.525 112.095 117.343 112.195 117.316 112.371C117.289 112.55 117.453 112.712 117.629 112.75C117.806 112.787 117.988 112.734 118.161 112.681C118.651 112.53 119.14 112.373 119.626 112.211ZM120.95 118.429C121.582 118.163 122.215 117.897 122.847 117.631C122.907 117.606 122.969 117.58 123.012 117.531C123.141 117.389 123.023 117.141 122.844 117.073C122.665 117.005 122.465 117.057 122.281 117.111C121.854 117.235 121.427 117.358 120.999 117.482C120.763 117.551 120.498 117.643 120.399 117.868C120.262 118.175 120.639 118.559 120.95 118.429ZM125.219 122.116C125.471 122.018 125.379 121.593 125.128 121.491C124.878 121.389 124.596 121.493 124.342 121.587C123.844 121.77 123.331 121.912 122.809 122.011C122.627 122.255 122.849 122.63 123.142 122.714C123.435 122.797 123.745 122.685 124.029 122.575C124.426 122.422 124.822 122.269 125.219 122.116ZM111.755 93.7743C112.265 93.9078 112.774 94.0414 113.284 94.1749C113.478 94.2258 113.777 94.1973 113.763 93.9973C112.883 93.3888 111.87 92.9731 110.816 92.7879C110.76 92.778 110.702 92.7691 110.648 92.7885C110.465 92.8549 110.535 93.138 110.673 93.2754C110.958 93.5595 111.366 93.6723 111.755 93.7743ZM113.681 91.8056C113.861 92.2389 114.041 92.6723 114.221 93.1057C114.33 93.3666 114.452 93.644 114.691 93.7942C114.931 93.9443 115.32 93.8807 115.399 93.6092C115.458 93.4022 115.319 93.1954 115.186 93.026C114.678 92.379 114.156 91.7438 113.619 91.1212C113.5 91.3272 113.589 91.586 113.681 91.8056ZM112.808 92.6199C112.903 92.6529 113.02 92.6825 113.097 92.6173C113.188 92.5409 113.155 92.393 113.094 92.2918C112.87 91.9242 112.418 91.7786 112.004 91.661C111.448 91.503 110.892 91.345 110.336 91.187C110.163 91.1378 110.032 91.3901 110.113 91.5506C110.194 91.711 110.38 91.7832 110.55 91.8418C111.303 92.1012 112.055 92.3605 112.808 92.6199ZM120.246 116.513C120.09 116.56 119.92 116.618 119.835 116.757C119.682 117.004 119.905 117.327 120.166 117.454C120.756 116.974 121.508 116.697 122.268 116.678C122.527 116.672 122.55 116.238 122.33 116.101C122.111 115.964 121.826 116.035 121.578 116.11C121.134 116.244 120.69 116.378 120.246 116.513ZM117.775 109.74C117.417 109.835 117.058 109.929 116.699 110.024C116.37 110.111 115.958 110.326 116.037 110.657C116.104 110.939 116.498 111.003 116.762 110.884C117.026 110.766 117.228 110.536 117.491 110.414C117.92 110.216 118.526 110.288 118.767 109.881C118.561 109.589 118.12 109.648 117.775 109.74ZM104.332 90.771C104.263 90.8008 104.192 90.8348 104.146 90.8946C104.029 91.0487 104.157 91.2883 104.339 91.356C104.52 91.4237 104.721 91.3751 104.91 91.33C105.543 91.1785 106.187 91.0735 106.835 91.0163C106.898 90.6607 106.433 90.4614 106.072 90.4471C105.478 90.4235 104.878 90.5351 104.332 90.771ZM114.821 104.561C115.007 104.364 114.902 103.925 114.636 103.977C113.931 104.115 113.252 104.381 112.642 104.76C112.499 105.05 112.894 105.351 113.213 105.301C113.533 105.25 113.79 105.016 114.089 104.893C114.34 104.791 114.635 104.758 114.821 104.561ZM115.207 98.1923C115.124 98.0868 114.99 98.0367 114.864 97.9914C114.248 97.7711 113.632 97.5509 113.016 97.3306C112.847 97.2703 112.658 97.2104 112.494 97.2823C112.33 97.3541 112.265 97.6259 112.425 97.7052C113.215 98.0953 114.053 98.3847 114.915 98.5641C115.005 98.5828 115.105 98.5985 115.182 98.5493C115.296 98.477 115.291 98.2978 115.207 98.1923ZM112.307 90.945C112.395 90.997 112.51 90.8986 112.513 90.7965C112.515 90.6944 112.446 90.6056 112.377 90.5303C111.716 89.8084 110.745 89.4712 109.816 89.1607C109.58 89.0819 109.235 89.0552 109.167 89.2939C110.241 89.7907 111.289 90.342 112.307 90.945ZM126.008 122.974C125.952 122.78 125.748 122.66 125.548 122.64C125.347 122.619 125.149 122.679 124.956 122.738C124.62 122.841 124.284 122.943 123.948 123.046C123.716 123.117 123.433 123.257 123.453 123.499C123.469 123.696 123.698 123.813 123.895 123.795C124.092 123.776 124.265 123.664 124.443 123.579C124.832 123.393 125.276 123.323 125.703 123.381C125.902 123.409 126.063 123.167 126.008 122.974ZM104.932 92.2434C104.929 92.4253 105.071 92.5987 105.25 92.6317C105.366 92.653 105.484 92.6211 105.597 92.5896C106.251 92.4072 106.905 92.2249 107.56 92.0426C107.57 91.8587 107.411 91.6999 107.235 91.6466C107.059 91.5933 106.869 91.6206 106.687 91.6483C106.212 91.7206 105.737 91.7929 105.262 91.8651C105.082 91.8925 104.935 92.0615 104.932 92.2434ZM115.737 105.328C115.763 105.157 115.595 105.006 115.423 104.984C115.252 104.963 115.083 105.033 114.925 105.101C114.42 105.319 113.915 105.537 113.41 105.755C113.26 105.946 113.445 106.248 113.682 106.302C113.918 106.355 114.158 106.247 114.377 106.142C114.722 105.976 115.066 105.809 115.411 105.643C115.553 105.575 115.713 105.483 115.737 105.328ZM108.517 87.848C108.575 87.9517 108.691 88.0067 108.799 88.0553C109.699 88.4583 110.598 88.8613 111.498 89.2643C111.657 89.3359 111.89 89.3844 111.969 89.2282C112.054 89.0605 111.845 88.9003 111.672 88.8269C110.705 88.4158 109.737 88.0047 108.769 87.5936C108.721 87.5729 108.669 87.5518 108.617 87.5605C108.499 87.5801 108.459 87.7443 108.517 87.848ZM113.175 99.4521C113.145 99.4394 113.113 99.4264 113.081 99.4326C113.047 99.4392 113.019 99.4684 113.015 99.5021C113.093 100.04 113.697 100.306 114.215 100.474C114.891 100.693 115.567 100.913 116.244 101.132C116.406 100.952 116.141 100.703 115.918 100.609C115.003 100.224 114.089 99.8378 113.175 99.4521ZM108.174 93.1433C108.25 93.0012 108.136 92.8234 107.993 92.7498C107.743 92.6212 107.441 92.693 107.17 92.7674C106.861 92.8522 106.552 92.9369 106.243 93.0217C106.021 93.0828 105.753 93.1982 105.744 93.4288C105.738 93.6014 105.901 93.7426 106.071 93.7742C106.241 93.8058 106.414 93.7559 106.579 93.7065C107.02 93.575 107.46 93.4435 107.901 93.312C108.006 93.2805 108.123 93.2406 108.174 93.1433ZM123.487 118.19C123.303 118.084 123.072 118.146 122.87 118.21C122.227 118.416 121.584 118.621 120.942 118.827C120.799 119.055 121.058 119.357 121.326 119.373C121.594 119.389 121.837 119.233 122.073 119.106C122.504 118.876 122.978 118.727 123.463 118.672C123.674 118.647 123.67 118.296 123.487 118.19ZM111.209 98.6734C111.003 98.6182 110.785 98.6566 110.576 98.6953C110.316 98.7431 110.057 98.791 109.798 98.8388C109.503 98.8931 109.13 99.0453 109.162 99.3428C109.18 99.5183 109.353 99.6451 109.528 99.6705C109.702 99.696 109.878 99.644 110.047 99.5926C110.565 99.435 111.082 99.2773 111.6 99.1197C111.605 98.9065 111.415 98.7286 111.209 98.6734ZM109.444 95.1862C109.3 95.0393 109.063 95.0287 108.865 95.0858C108.667 95.1429 108.49 95.2553 108.297 95.3262C108.069 95.4099 107.823 95.4346 107.596 95.5203C107.369 95.6061 107.15 95.7775 107.111 96.0169C107.196 96.2161 107.482 96.1939 107.691 96.1375C108.246 95.9882 108.8 95.8389 109.354 95.6896C109.553 95.6361 109.588 95.3332 109.444 95.1862ZM108.672 97.899C108.441 97.9661 108.481 98.3477 108.692 98.4638C108.902 98.5799 109.162 98.5159 109.394 98.4491C109.878 98.3091 110.363 98.1691 110.847 98.0291C110.883 97.787 110.661 97.5678 110.422 97.5152C110.184 97.4625 109.936 97.5314 109.701 97.5997C109.358 97.6995 109.015 97.7992 108.672 97.899ZM111.422 63.8009C111.73 63.5791 111.683 63.121 111.692 62.7413C111.29 62.6923 110.85 62.6515 110.512 62.873C110.173 63.0945 110.082 63.6923 110.445 63.872C110.569 63.9337 110.715 63.932 110.854 63.9291C111.051 63.9248 111.262 63.9163 111.422 63.8009ZM112.199 96.0827C112.005 96.0628 111.722 96.1486 111.777 96.3357C111.804 96.4255 111.902 96.4697 111.99 96.5015C112.835 96.8069 113.717 97.009 114.61 97.1021C114.721 97.0766 114.753 96.9201 114.695 96.8224C114.638 96.7247 114.526 96.6743 114.421 96.632C113.711 96.3465 112.96 96.161 112.199 96.0827ZM108.268 86.7067C108.998 87.0821 109.743 87.4302 110.5 87.7502C110.647 87.8123 110.813 87.8738 110.961 87.8132C111.109 87.7526 111.165 87.5054 111.019 87.4414C110.159 87.065 109.299 86.6885 108.438 86.3121C108.302 86.2523 108.107 86.2095 108.033 86.3391C107.952 86.4812 108.122 86.632 108.268 86.7067ZM115.499 99.2986C115.374 99.1856 115.207 99.135 115.046 99.0876C114.367 98.8882 113.688 98.6888 113.01 98.4895C112.916 98.4619 112.811 98.435 112.724 98.4782C112.636 98.5214 112.604 98.6692 112.692 98.7122C113.62 99.1674 114.601 99.517 115.607 99.7522C115.691 99.6062 115.623 99.4115 115.499 99.2986ZM116.031 109.772C116.515 109.601 116.999 109.429 117.483 109.258C117.696 109.183 117.924 109.096 118.046 108.906C118.015 108.735 117.831 108.628 117.657 108.625C117.484 108.621 117.32 108.696 117.163 108.769C116.739 108.968 116.315 109.166 115.891 109.364C115.738 109.435 115.561 109.541 115.559 109.71C115.638 109.865 115.867 109.83 116.031 109.772ZM112.186 100.093C112.299 99.9676 112.197 99.7491 112.04 99.6865C111.883 99.6238 111.706 99.6669 111.543 99.7106C110.987 99.8592 110.432 100.008 109.876 100.156C109.776 100.273 109.866 100.471 110.008 100.532C110.15 100.593 110.312 100.56 110.463 100.527C110.964 100.415 111.465 100.304 111.966 100.193C112.046 100.175 112.131 100.154 112.186 100.093ZM118.972 110.502C118.858 110.477 118.741 110.522 118.632 110.566C118.04 110.808 117.448 111.05 116.856 111.292C116.685 111.362 116.754 111.654 116.928 111.717C117.102 111.781 117.292 111.698 117.459 111.618C117.968 111.371 118.476 111.125 118.985 110.879C119.043 110.851 119.105 110.819 119.133 110.762C119.185 110.656 119.087 110.527 118.972 110.502ZM114.625 101.099C114.397 101.015 114.069 100.971 113.978 101.196C114.78 101.609 115.631 101.928 116.508 102.143C116.687 102.035 116.463 101.78 116.267 101.707C115.72 101.505 115.172 101.302 114.625 101.099ZM103.587 90.0108C103.434 90.1849 103.585 90.5149 103.816 90.5129C104.346 90.1669 104.965 89.9583 105.597 89.913C105.397 89.6626 105.05 89.5676 104.73 89.5926C104.411 89.6176 104.11 89.745 103.815 89.8707C103.732 89.9059 103.646 89.9433 103.587 90.0108ZM116.554 103.013C116.727 103.055 117.001 103.006 116.958 102.833C116.233 102.506 115.469 102.266 114.687 102.118C114.601 102.235 114.653 102.411 114.761 102.507C114.869 102.604 115.016 102.641 115.156 102.675C115.622 102.788 116.088 102.901 116.554 103.013ZM116.006 103.921C116.412 104.047 116.832 104.126 117.256 104.157C117.34 104.044 117.292 103.873 117.188 103.778C117.084 103.683 116.942 103.645 116.806 103.611C116.373 103.501 115.941 103.391 115.509 103.281C115.352 103.551 115.707 103.829 116.006 103.921ZM125.248 126.966C125.151 127.204 125.277 127.537 125.532 127.57C125.848 127.265 126.12 126.915 126.336 126.532C126.213 126.399 125.997 126.431 125.827 126.494C125.586 126.583 125.345 126.729 125.248 126.966ZM118.479 107.225C118.272 107.033 118.018 106.893 117.745 106.823C117.701 107.209 117.923 107.612 118.273 107.782C118.357 107.822 118.456 107.85 118.542 107.814C118.759 107.721 118.651 107.385 118.479 107.225ZM117.464 104.795C117.322 104.693 117.139 104.673 116.965 104.657C116.75 104.637 116.536 104.617 116.321 104.597C116.217 104.848 116.512 105.091 116.78 105.13C117.048 105.17 117.341 105.116 117.576 105.252C117.682 105.113 117.606 104.898 117.464 104.795ZM119.127 109.51C119.211 109.582 119.314 109.646 119.424 109.634C119.463 109.107 119.107 108.618 118.665 108.33C118.613 108.767 118.792 109.225 119.127 109.51ZM117.752 105.962C117.504 105.825 117.212 105.768 116.93 105.804C117.032 106.078 117.275 106.295 117.559 106.366C117.711 106.404 117.901 106.388 117.984 106.255C118.067 106.122 117.903 105.901 117.775 105.992M103.841 88.9051C103.606 88.9468 103.385 89.0664 103.221 89.2408C103.514 89.3231 103.847 89.2399 104.067 89.0298C104.013 88.9571 103.929 88.9073 103.839 88.8948" fill="#2C2C2E"/>
<path fill-rule="evenodd" clip-rule="evenodd" d="M98.7895 112.325C101.192 110.017 104.563 110.343 106.921 112.875C108.972 115.077 108.484 117.987 106.156 120.428C105.277 121.339 103.513 121.944 102.237 121.796C101.157 121.688 99.474 120.892 98.4748 120.158C98.0122 119.818 97.5891 119.117 97.1901 118.053L97.1312 117.894C96.4224 115.929 96.9011 113.851 98.507 112.547L98.5822 112.488L98.5992 112.464C98.6131 112.447 98.6291 112.431 98.6474 112.415L98.6766 112.393L98.7093 112.372L98.7777 112.338L98.7895 112.325ZM102.965 120.25L102.239 121.027L102.319 121.034C103.063 121.088 103.792 120.971 104.455 120.69L104.491 120.674L104.44 120.671C103.982 120.638 103.499 120.498 102.996 120.265L102.965 120.25ZM100.846 118.791L100.778 118.728L100.706 118.798C100.424 119.073 100.138 119.354 99.8452 119.644L99.5136 119.973C99.6075 120.041 99.7052 120.108 99.8069 120.173C100.266 120.473 100.762 120.7 101.276 120.847L101.386 120.878L101.917 120.318L102.315 119.898L102.289 119.882C101.789 119.575 101.298 119.199 100.846 118.791ZM104.311 118.81L103.445 119.737L103.489 119.756C104.162 120.038 104.762 120.092 105.277 119.884L105.331 119.86L105.279 119.801C105.019 119.51 104.739 119.221 104.432 118.926L104.311 118.81ZM99.0936 116.855L98.94 117.006C98.7186 117.221 98.4953 117.435 98.2699 117.648L97.9154 117.979L97.9452 118.05C98.1852 118.603 98.5195 119.085 98.9551 119.506L98.9707 119.52L99.0201 119.47C99.3355 119.15 99.6613 118.826 100.001 118.494L100.265 118.237L100.193 118.165C99.7982 117.763 99.4603 117.37 99.176 116.972L99.0936 116.855ZM105.725 117.297L104.78 118.308L104.79 118.317C105.152 118.663 105.484 119.002 105.792 119.345L105.885 119.45L105.888 119.447C106.21 119.009 106.155 118.295 105.767 117.393L105.725 117.297ZM102.419 117.16L102.349 117.225C102.026 117.529 101.698 117.84 101.364 118.161L101.27 118.252L101.358 118.329C101.82 118.733 102.262 119.072 102.705 119.346L102.788 119.396L103.381 118.766L103.79 118.331L103.655 118.212C103.41 117.995 103.145 117.769 102.813 117.489L102.419 117.16ZM107.468 115.433L106.16 116.832L106.203 116.914C106.275 117.056 106.345 117.199 106.415 117.346L106.518 117.567L106.613 117.78C106.711 117.986 106.778 118.191 106.815 118.394L106.82 118.428L106.859 118.358C107.388 117.388 107.605 116.389 107.472 115.462L107.468 115.433ZM104.592 115.418L104.525 115.329L104.286 115.529L103.622 116.078L103.503 116.178C103.38 116.281 103.271 116.376 103.17 116.466L103.052 116.571L102.93 116.684L103.204 116.912C103.51 117.169 103.776 117.397 104.025 117.616L104.261 117.827L105.021 117.013L105.383 116.624L105.38 116.619C105.153 116.218 104.883 115.809 104.592 115.418ZM100.544 115.5L100.487 115.444L100.469 115.463C100.247 115.696 100.023 115.927 99.7966 116.156L99.571 116.382L99.6181 116.454C99.8928 116.866 100.233 117.268 100.629 117.658L100.729 117.755L100.748 117.772L100.778 117.742C101.007 117.524 101.242 117.301 101.485 117.073L101.876 116.707L101.822 116.662C101.382 116.287 100.957 115.9 100.544 115.5ZM98.1274 114.016L98.1057 114.052C97.5678 114.956 97.4018 116.08 97.6516 117.151L97.674 117.243L97.6853 117.287L97.7981 117.181C98.0339 116.959 98.2679 116.735 98.5002 116.509L98.7365 116.276L98.714 116.235C98.327 115.515 98.1244 114.784 98.1274 114.032L98.1274 114.016ZM102.4 113.339L102.12 113.661C101.801 114.023 101.479 114.382 101.151 114.736L100.958 114.944L101.006 114.99C101.388 115.359 101.783 115.718 102.195 116.071L102.387 116.233L102.57 116.064C102.688 115.958 102.813 115.848 102.956 115.727L103.19 115.531L103.739 115.079C103.838 114.997 103.926 114.923 104.008 114.854L104.089 114.785L104.05 114.74C103.862 114.521 103.684 114.333 103.537 114.195L103.494 114.156C103.194 113.886 102.867 113.639 102.503 113.404L102.4 113.339ZM106.364 113.299L106.335 113.351C106.032 113.865 105.614 114.346 105.046 114.87L104.998 114.913L105.015 114.937C105.264 115.286 105.499 115.65 105.722 116.031L105.803 116.171L106.438 115.485L107.243 114.612L107.224 114.566C107.039 114.127 106.764 113.714 106.399 113.335L106.364 113.299ZM98.8396 113.69L98.8365 113.72C98.7712 114.413 98.9069 115.094 99.2249 115.765L99.233 115.782L99.3178 115.697C99.5053 115.507 99.6916 115.316 99.8768 115.123L100.018 114.975L99.9607 114.916C99.6349 114.58 99.3152 114.234 98.9995 113.874L98.8396 113.69ZM99.1556 112.924L99.1071 112.947L99.1195 112.962C99.5497 113.475 99.9882 113.961 100.442 114.428L100.488 114.475L100.678 114.272C101.01 113.912 101.337 113.548 101.66 113.18L101.818 112.999L101.801 112.99C101.721 112.946 101.639 112.903 101.555 112.859L101.427 112.794C100.679 112.426 100.126 112.467 99.2309 112.888L99.1556 112.924ZM103.838 111.613L103.562 111.955C103.376 112.184 103.188 112.411 102.998 112.637L102.865 112.795L102.899 112.816C103.401 113.14 103.828 113.491 104.18 113.88L104.259 113.97C104.337 114.061 104.414 114.152 104.489 114.245L104.576 114.353L104.588 114.343C105.148 113.821 105.543 113.346 105.814 112.835L105.822 112.82L105.75 112.763C105.025 112.193 104.493 111.854 103.931 111.646L103.838 111.613ZM102.729 111.416C102.018 111.411 101.371 111.538 100.774 111.799L100.74 111.814L100.799 111.822C100.93 111.841 101.058 111.875 101.185 111.922L101.247 111.947C101.586 112.096 101.897 112.246 102.189 112.401L102.286 112.453L102.478 112.228C102.672 111.996 102.865 111.763 103.056 111.528L103.125 111.443L103.041 111.434C102.972 111.427 102.903 111.422 102.833 111.419L102.729 111.416Z" fill="#FFAB01"/>
<path fill-rule="evenodd" clip-rule="evenodd" d="M114.808 62.7627C115.033 62.1545 115.842 61.9033 116.438 62.1568C117.035 62.4103 117.406 63.0441 117.499 63.6857C117.593 64.3273 117.451 64.9794 117.268 65.6015C117.101 66.1688 116.9 66.726 116.666 67.269C116.645 67.3195 116.616 67.3759 116.562 67.388C116.505 67.4009 116.452 67.3564 116.411 67.3148C115.397 66.2874 114.786 64.8725 114.733 63.4299C114.724 63.2047 114.73 62.974 114.808 62.7627ZM116.561 62.9111C116.395 62.7685 116.18 62.6751 115.961 62.6817C115.449 62.6972 115.093 63.2551 115.104 63.7666C115.115 64.2781 115.388 64.7424 115.652 65.1804C115.842 65.4941 116.031 65.8078 116.22 66.1215C116.285 66.2284 116.412 66.3503 116.513 66.2763C116.553 66.2464 116.569 66.1941 116.582 66.1455C116.659 65.8606 116.737 65.5756 116.815 65.2906C116.925 64.8832 117.037 64.4692 117.03 64.047C117.023 63.6249 116.882 63.1859 116.561 62.9111L116.561 62.9111Z" fill="#FFAB01"/>
<path fill-rule="evenodd" clip-rule="evenodd" d="M116.227 64.5485C116.102 64.5836 115.966 64.577 115.845 64.53C115.611 64.4388 115.45 64.1881 115.463 63.9374C115.477 63.6866 115.665 63.4548 115.907 63.3894C116.274 63.2903 116.688 63.6287 116.664 64.0084C116.648 64.2548 116.464 64.4816 116.227 64.5485Z" fill="#FFAB01"/>
</svg>
